<!--?xml version="1.0" encoding="utf-8"?-->
<!-- Generator: Adobe Illustrator 18.1.1, SVG Export Plug-In . SVG Version: 6.00 Build 0)  -->

<svg version="1.1" id="_x32_" xmlns="http://www.w3.org/2000/svg" xmlns:xlink="http://www.w3.org/1999/xlink" x="0px" y="0px" viewBox="0 0 512 512" style="width: 256px; height: 256px; opacity: 1;" xml:space="preserve">
<style type="text/css">
	.st0{fill:#4B4B4B;}
</style>
<g>
	<path class="st0" d="M449.934,149.11h-73.552c12.539-7.246,23.412-15.863,32.202-25.472c7.617-8.359,13.728-17.438,18.006-27.031
		c4.255-9.594,6.686-19.74,6.686-29.992c0-6.822-1.091-13.667-3.362-20.246c-2.545-7.33-6.224-13.985-10.79-19.755
		c-6.844-8.661-15.59-15.332-25.274-19.815C384.167,2.31,373.52,0,362.678,0c-7.95,0-16.007,1.25-23.851,3.839
		c-11.766,3.854-23.048,10.783-32.566,20.732c-9.533,9.957-17.248,22.889-22.321,38.54c-6.618,20.353-26.448,66.51-27.001,67.638
		h-1.886c-0.553-1.128-20.383-47.293-26.993-67.638c-3.4-10.434-7.935-19.664-13.44-27.599
		c-8.224-11.91-18.596-20.914-29.894-26.796C173.415,2.817,161.24-0.007,149.322,0c-14.447,0.008-28.575,4.112-40.509,12.009
		c-5.966,3.937-11.387,8.844-15.939,14.613c-4.565,5.77-8.252,12.426-10.79,19.755c-2.279,6.572-3.369,13.416-3.361,20.239
		c0,6.83,1.075,13.622,3.059,20.232c3.468,11.562,9.654,22.541,17.945,32.55c9.366,11.305,21.444,21.436,35.761,29.712H62.066
		c-10.245,0-18.521,8.291-18.521,18.52v325.849c0,10.245,8.284,18.521,18.521,18.521h387.869c10.237,0,18.521-8.284,18.521-18.521
		V167.63C468.455,157.401,460.172,149.11,449.934,149.11z M420.798,345.096v119.247H274.649V345.096H420.798z M274.649,307.798
		V196.767h146.149v111.032H274.649z M237.351,345.096v119.247H91.201V345.096H237.351z M91.201,307.798V196.767h146.15v111.032
		H91.201z M114.356,83.751c-2.712-6.11-3.953-11.91-3.953-17.142c0-3.498,0.53-6.762,1.605-9.859l0.008-0.015
		c1.371-3.975,3.309-7.458,5.716-10.494c3.604-4.566,8.284-8.185,13.705-10.699c5.436-2.506,11.57-3.884,17.884-3.884
		c4.634,0,9.328,0.735,13.94,2.264c6.913,2.272,13.599,6.3,19.587,12.547c5.967,6.262,11.312,14.81,15.098,26.433
		c10.351,31.847,20.413,52.972,28.727,66.918c-1.151,0.03-2.332,0.046-3.566,0.046c-17.43,0-33.338-2.718-47.361-7.322
		c-21.034-6.876-37.813-18.052-48.944-30.265C121.216,96.169,117.051,89.831,114.356,83.751z M323.418,53.517
		c5.444-7.867,11.797-13.22,18.498-16.718c6.708-3.506,13.81-5.126,20.761-5.142c8.42,0,16.529,2.438,23.041,6.762
		c3.271,2.158,6.141,4.778,8.548,7.822c2.408,3.036,4.346,6.519,5.716,10.494c1.083,3.112,1.613,6.383,1.62,9.874
		c0,3.49-0.552,7.215-1.726,11.138c-2.044,6.852-6.035,14.265-12.009,21.458c-8.92,10.804-22.238,21.057-39.039,28.507
		c-16.802,7.458-37.064,12.145-59.938,12.145c-1.226,0-2.415-0.014-3.566-0.045c8.314-13.948,18.384-35.065,28.727-66.919
		C316.582,65.148,319.792,58.764,323.418,53.517z" style="fill: rgb(75, 75, 75);"></path>
</g>
</svg>
