<!--?xml version="1.0" encoding="utf-8"?-->
<!-- Generator: Adobe Illustrator 18.1.1, SVG Export Plug-In . SVG Version: 6.00 Build 0)  -->

<svg version="1.1" id="_x32_" xmlns="http://www.w3.org/2000/svg" xmlns:xlink="http://www.w3.org/1999/xlink" x="0px" y="0px" viewBox="0 0 512 512" style="width: 256px; height: 256px; opacity: 1;" xml:space="preserve">
<style type="text/css">
	.st0{fill:#4B4B4B;}
</style>
<g>
	<path class="st0" d="M208.113,273.076c-4.348,0-7.882,3.534-7.882,7.877c0,4.344,3.534,7.886,7.882,7.886
		c4.347,0,7.881-3.542,7.881-7.886C215.994,276.61,212.459,273.076,208.113,273.076z" style="fill: rgb(75, 75, 75);"></path>
	<path class="st0" d="M303.88,288.839c4.348,0,7.882-3.542,7.882-7.886c0-4.344-3.534-7.877-7.882-7.877
		c-4.347,0-7.882,3.534-7.882,7.877C295.998,285.297,299.533,288.839,303.88,288.839z" style="fill: rgb(75, 75, 75);"></path>
	<path class="st0" d="M412.021,332.264l-0.008-0.033c-1.23-7.845-3.08-16.3-5.723-24.26l-8.397-25.201l-9.967-31.212
		c12.617-6.961,21.172-20.387,21.188-35.82v-0.024c-0.041-22.642-18.348-41.014-41.03-41.014c-3.162,0-6.218,0.404-9.157,1.09
		l-63.503-90.037c7.779-9.067,12.572-20.858,12.572-33.764C307.988,23.277,284.703,0,256,0c-28.714,0-51.987,23.277-51.996,51.988
		c0,12.906,4.773,24.697,12.564,33.764l-63.503,90.037c-2.936-0.686-5.995-1.09-9.162-1.09c-22.67,0-40.985,18.372-41.03,41.014
		v0.024c0.008,15.442,8.583,28.859,21.192,35.82l-9.954,31.179l-8.402,25.234c-2.663,7.96-4.496,16.424-5.734,24.26v0.025
		c-1.185,7.836-1.776,14.937-1.813,20.445v0.008v0.05c0,0.866,0.037,1.412,0.037,1.568c0.037,43.533,17.724,82.978,46.254,111.498
		C172.99,494.321,212.459,511.95,255.992,512h0.016c43.524-0.05,82.994-17.67,111.523-46.167
		c28.545-28.528,46.216-67.973,46.257-111.489c-0.008-0.149,0.042-0.677,0.049-1.585v-0.042v-0.024
		C413.78,347.193,413.21,340.092,412.021,332.264z M232.764,28.76c5.945-5.945,14.141-9.603,23.236-9.644
		c9.091,0.042,17.287,3.699,23.228,9.644c5.995,5.946,9.648,14.145,9.648,23.228c0,9.091-3.654,17.241-9.648,23.236
		c-5.941,5.946-14.137,9.604-23.228,9.604c-9.095,0-17.29-3.658-23.236-9.604c-5.986-5.994-9.648-14.144-9.648-23.236
		C223.116,42.905,226.778,34.705,232.764,28.76z M121.993,215.737c0-6.077,2.46-11.51,6.399-15.507
		c3.997-3.947,9.435-6.424,15.512-6.424c7.098,0,13.34,3.36,17.374,8.62c1.193,1.536,3.063,2.477,5.004,2.477
		c1.998,0,3.868-0.9,5.061-2.477c4.08-5.26,10.322-8.62,17.382-8.62c7.085,0,13.327,3.36,17.369,8.62
		c1.184,1.577,3.092,2.518,5.053,2.518c1.999,0,3.865-0.941,5.05-2.518c4.034-5.26,10.276-8.62,17.374-8.62
		c7.093,0,13.299,3.36,17.369,8.62c1.193,1.577,3.055,2.518,5.061,2.518c1.99,0,3.865-0.941,5.05-2.518
		c4.079-5.26,10.276-8.62,17.374-8.62c7.093,0,13.339,3.36,17.373,8.62c1.193,1.577,3.059,2.518,5.057,2.518
		c1.953,0,3.868-0.941,5.05-2.518c4.033-5.26,10.289-8.62,17.374-8.62c7.048,0,13.302,3.36,17.369,8.62
		c1.189,1.577,3.055,2.477,5.053,2.477c1.966,0,3.832-0.942,5.012-2.477c4.046-5.26,10.289-8.62,17.373-8.62
		c6.077,0,11.519,2.476,15.508,6.424c3.955,3.997,6.416,9.43,6.416,15.507c0,6.061-2.461,11.503-6.416,15.458
		c-3.988,3.997-9.43,6.416-15.508,6.416c-7.084,0-13.327-3.36-17.323-8.588c-1.23-1.568-3.096-2.502-5.062-2.502
		c-1.998,0-3.864,0.934-5.053,2.502c-4.067,5.227-10.273,8.588-17.369,8.588c-7.085,0-13.34-3.36-17.374-8.588
		c-1.181-1.568-3.096-2.502-5.05-2.502c-1.998,0-3.864,0.934-5.057,2.502c-4.034,5.227-10.28,8.588-17.373,8.588
		c-7.098,0-13.295-3.36-17.374-8.588c-1.184-1.568-3.059-2.502-5.05-2.502c-2.006,0-3.868,0.934-5.061,2.502
		c-4.07,5.227-10.276,8.588-17.369,8.588c-7.098,0-13.34-3.36-17.374-8.588c-1.184-1.568-3.051-2.502-5.05-2.502
		c-1.961,0-3.868,0.934-5.053,2.502c-4.042,5.227-10.284,8.588-17.369,8.588c-7.105,0-13.302-3.36-17.382-8.588
		c-1.193-1.568-3.063-2.502-5.061-2.502c-1.941,0-3.811,0.934-5.05,2.502c-3.988,5.227-10.23,8.588-17.328,8.588
		c-6.077,0-11.514-2.419-15.512-6.416C124.453,227.24,121.993,221.798,121.993,215.737z M256,300.3
		c-11.176,0-20.176,9.042-20.176,20.222c0,1.395,0.12,2.798,0.425,4.162l-0.256,0.115c-7.477,3.493-19.28,6.474-37.558,6.474
		c-17.832,0-32.533-6.507-43.862-15.639c-10.618-8.58-18.058-19.578-21.63-29.049l11.565-36.282
		c8.315-0.124,15.928-3.228,21.832-8.232c6.028,5.128,13.836,8.282,22.386,8.282c8.576,0,16.391-3.154,22.422-8.282
		c6.028,5.128,13.885,8.282,22.423,8.282c8.538,0,16.399-3.154,22.43-8.282c6.032,5.128,13.885,8.282,22.423,8.282
		c8.538,0,16.398-3.154,22.43-8.282c6.032,5.128,13.839,8.282,22.423,8.282c8.537,0,16.354-3.154,22.389-8.282
		c5.896,5.004,13.501,8.109,21.824,8.232l11.56,36.282c-3.576,9.471-10.999,20.47-21.618,29.049
		c-11.346,9.132-26.035,15.639-43.887,15.639c-18.261,0-30.065-2.981-37.546-6.474l-0.252-0.115
		c0.297-1.363,0.426-2.767,0.426-4.162C276.173,309.342,267.163,300.3,256,300.3z M394.681,353.989v0.165
		c0,38.363-15.507,72.978-40.609,98.08c-25.098,25.094-59.767,40.61-98.072,40.651c-38.313-0.042-72.973-15.557-98.08-40.651
		c-25.106-25.102-40.609-59.717-40.609-98.08v-0.165c0-0.38-0.037-0.759-0.037-1.23c0-4.162,0.5-10.619,1.61-17.588
		c1.061-6.96,2.721-14.516,4.922-21.155l3.496-10.321c4.752,7.728,11.209,15.292,19.24,21.832
		c13.207,10.71,30.878,18.53,51.892,18.48c13.943,0,24.904-1.618,33.525-4.112c4.116-1.239,7.688-2.684,10.784-4.261
		c3.571,3.114,8.158,5.062,13.256,5.062c5.095,0,9.686-1.948,13.245-5.062c3.1,1.577,6.672,3.022,10.797,4.261
		c8.62,2.494,19.573,4.112,33.504,4.112c21.036,0.05,38.702-7.77,51.913-18.48c8.027-6.54,14.483-14.104,19.24-21.832l3.477,10.321
		c2.213,6.638,3.872,14.194,4.93,21.155c1.106,6.969,1.618,13.426,1.618,17.588C394.723,353.23,394.681,353.609,394.681,353.989z" style="fill: rgb(75, 75, 75);"></path>
</g>
</svg>
